<?xml version="1.0" encoding="UTF-8"?>
<!DOCTYPE svg PUBLIC "-//W3C//DTD SVG 1.1//EN" "http://www.w3.org/Graphics/SVG/1.1/DTD/svg11.dtd">
<!-- Creator: CorelDRAW 2020 (64-Bit) -->
<svg xmlns="http://www.w3.org/2000/svg" xml:space="preserve" width="125.28mm" height="140.072mm" version="1.1" style="shape-rendering:geometricPrecision; text-rendering:geometricPrecision; image-rendering:optimizeQuality; fill-rule:evenodd; clip-rule:evenodd"
viewBox="0 0 10916.45 12205.38"
 xmlns:xlink="http://www.w3.org/1999/xlink"
 xmlns:xodm="http://www.corel.com/coreldraw/odm/2003">
 <defs>
  <style type="text/css">
   <![CDATA[
    .str1 {stroke:#1F1B20;stroke-width:61;stroke-miterlimit:22.9256}
    .str0 {stroke:#1F1B20;stroke-width:43.57;stroke-miterlimit:22.9256}
    .fil2 {fill:none}
    .fil0 {fill:#FEFEFE}
    .fil4 {fill:#2B2A29}
    .fil3 {fill:#1F1B20}
    .fil1 {fill:#1F1B20}
   ]]>
  </style>
 </defs>
 <g id="Layer_x0020_1">
  <metadata id="CorelCorpID_0Corel-Layer"/>
  <path class="fil0" d="M7193.4 5410.05c0,0 369.18,-166.4 927.39,-166.96 558.21,-0.57 947.74,140.06 947.74,140.06l1847.92 6821.93 -4530.89 -2.95 807.84 -6792.09z"/>
  <g id="_1959819335776">
   <path class="fil1" d="M9865.25 4171.58c-152.33,-660.89 -454.39,-1011.6 -1107.52,-1238.84 -1325.74,-461.26 -2938.04,614.21 -2360.92,2123.63 343.48,898.32 1482.09,1209.25 2254.42,1647.98 1076.45,611.46 2366.35,1620.81 2202.65,3017.22l-16.53 101.32c-126.36,1001.42 -582.15,1697.81 -1538.63,2099.17 -961.38,403.41 -2167.44,86.12 -2991.24,-494.96 -941.87,-664.35 -2448.28,-1997.4 -3501.79,-2262.84 -780.93,-196.75 -1723.96,-6.37 -2382.06,446.08 0,0 -423.62,303.83 -423.62,303.83 285.3,-233.66 513.85,-460.44 847.81,-625.9 1398.93,-693.12 2415.02,-351.88 3664.33,456.51 1257.66,813.78 2318.19,2083.58 3885.73,2121.01 1218.79,29.1 2284.33,-813.2 2439.49,-2042.89 158.54,-1256.45 -1030.9,-2215.99 -2008.59,-2746.64 -597.99,-324.56 -1418.68,-623.91 -1936.03,-979.6 -619.24,-425.72 -1002.45,-1069.42 -893.46,-1838.76 187.13,-1320.99 1681.24,-1917.72 2803.88,-1442.28 655.81,277.74 954.52,663.57 1062.1,1355.98z"/>
  </g>
  <path class="fil2" d="M9865.25 4171.58c-13.12,-108.51 -53.19,-320.98 -147.39,-509.71 -114.21,-228.85 -271.65,-391.57 -417.64,-498.34 -681.91,-498.73 -1399.93,-541.89 -2254.91,-176.4 -441.27,188.63 -947.83,834.44 -916.48,1556.19 14.56,335.29 194.2,824.61 397,1045.65 535.03,583.15 1407.26,873.39 1766.3,1064.48 810.91,431.59 1545.29,794.45 2227.14,1776.93 293.43,422.81 398.05,951.79 305.39,1493.12 -110.76,647.02 -368.57,1168.04 -933.86,1564.19 -602.95,422.54 -1014.29,524.42 -1757.33,484.49 -586.39,-31.53 -1062.07,-280.02 -1517.92,-511.19 -66.19,-33.56 -1226.7,-882.23 -1377.64,-1013.54 -348.77,-303.44 -1258.71,-904.95 -1599.86,-1072.18 -284.4,-139.41 -704.83,-331.72 -1119.15,-356.2 -720.75,-42.6 -965.72,27.27 -1657.09,304.14 -318.81,127.66 -592.86,401.02 -861.81,590.96"/>
  <polygon class="fil3" points="7466.61,10460.73 7132.23,11429.92 7158,11441.59 7543.72,10460.77 "/>
  <polygon class="fil3" points="8720.51,10458.02 8817.36,11712.77 8843.49,11707.8 8797.62,10458.06 "/>
  <polygon class="fil3" points="9203.25,10457.19 9612.89,11471.29 9635.42,11458.24 9286.59,10457.22 "/>
  <path class="fil2 str0" d="M8113.65 5166.8c-108.21,-2.74 -189.98,-19.93 -192.86,93.67 -2.88,113.61 82.52,207.92 190.73,210.67 108.22,2.74 198.28,-87.14 201.15,-200.74 2.88,-113.61 -90.81,-100.87 -199.03,-103.61z"/>
  <path class="fil3" d="M8074.65 5637.42c28.21,0 59.76,0.83 59.76,0.83l-21.57 2677.09 -38.18 0 -0.01 -2677.92z"/>
  <polygon class="fil1" points="3604.24,3310.54 6529.86,11065.13 6856.79,11247.37 3719.03,2977.83 "/>
  <line class="fil2 str1" x1="3701.76" y1="3096.57" x2="570.44" y2= "12195.45" />
  <path class="fil1" d="M7564.19 560.79c0,0 -2.5,-53.95 -55.6,-58.93 -53.11,-4.98 -77.18,32.37 -76.35,63.08 0.83,30.7 6.63,60.57 48.13,72.19 41.49,11.62 80.51,-48.96 80.51,-48.96l337.75 1.66 0 -14.94 -334.43 -14.11z"/>
  <path class="fil1" d="M7566.68 1060.05c0,0 0.41,-60.59 -52.7,-65.57 -53.11,-4.98 -73.46,25.81 -78.45,64.39 -4.98,38.58 -1.22,79.18 50.64,88.31 51.86,9.13 77.19,-59.75 77.19,-59.75l337.75 1.66 0 -14.94 -334.43 -14.11z"/>
  <path class="fil1" d="M7893.38 349.01l-7.49 -197.66c0,0 -1.19,-43.14 -13.22,-59.74 -12.02,-16.6 -32.35,-74.71 19.52,-88.39 51.87,-13.68 85.66,19.56 88.55,39.88 2,14.05 -1.34,33.96 -11.16,51.38 -4.55,8.06 -10.74,19.59 -12.08,39.07 -1.86,27.14 -4.18,109.56 -5.01,184.24 -0.83,74.68 0.79,4556.71 0.79,4556.71l-47.3 0 -12.6 -4525.49z"/>
  <path class="fil1" d="M8063.72 693.63c3.66,-11.68 24.75,-20.48 37.11,-20.76 18.62,0.77 33.5,10.03 35.93,19.09l-7.92 4429.51 -48.55 0.52 -16.56 -4428.37z"/>
  <g id="_1959819343792">
   <path class="fil4" d="M9752.54 8948.31c-982.39,37.16 -685.26,905.09 -1578.51,945.64 -356.49,16.18 -881.11,-10.44 -896.4,495.14 -2.88,94.87 111.97,66.47 263.77,70.75 293.13,8.28 1734.71,38.34 1846.04,-110.83 58.12,-77.89 272.73,-768.75 329.43,-901.3 80.59,-188.37 245.74,-340.94 100.08,-484.37 159.9,134.05 6.35,305.54 -61.07,499.03 -55.18,158.38 -216.11,823.22 -300.86,939.44 -180.67,247.75 -1548.98,68.32 -1913.6,58.02 -184.89,-5.22 -296.85,56.26 -288.5,-99.52 28.82,-537.53 510.8,-526.87 917.28,-552.01 844.02,-52.19 593.2,-901.61 1582.36,-860z"/>
  </g>
  <path class="fil2" d="M9752.54 8948.31c-105.76,0 -57.55,-1.73 -188.22,7.68 -102.07,7.35 -241.66,56.35 -327.27,112.42 -229.2,150.13 -375.65,406.72 -568.03,599.09 -286.37,286.38 -703.15,129.66 -1006.73,220.9 -240.7,72.34 -280.11,150.21 -378.86,381.39 -11.02,25.79 -33.72,162.32 -2.2,168.74 59.64,12.16 130.15,17.47 205.01,19.75 182.82,5.59 389.79,9.46 532.41,18.34 131.49,8.18 1116.28,12.53 1217.1,-9.31 205.91,-44.6 202.52,-115.31 258.41,-255.5 41.22,-103.38 188.64,-705.87 371.73,-1053.49 14.87,-28.22 25.16,-113.2 -3.33,-149.45 -1.97,-2.51 -38.35,-43.63 -45.63,-45.54"/>
  <g id="_1959819342544">
   <path class="fil4" d="M7193.4 5410.05c596.55,-476.58 1224.72,-339.82 1867.39,-36.72l-0.98 -0.3c6.81,5.02 3.73,1.8 8.72,10.13 -4.49,2.81 -7.7,6.18 -13.35,4.77 -685.95,-171.62 -1192.12,-222.05 -1861.78,22.13z"/>
  </g>
  <path class="fil2" d="M7193.4 5410.05c199.66,-157.75 595.45,-228.45 846.66,-246.25 229.2,-16.23 804.69,134.71 1017.93,216.82l10.54 2.53"/>
 </g>
</svg>
