<?xml version="1.0" encoding="UTF-8"?>
<!DOCTYPE svg PUBLIC "-//W3C//DTD SVG 1.1//EN" "http://www.w3.org/Graphics/SVG/1.1/DTD/svg11.dtd">
<!-- Creator: CorelDRAW 2020 (64-Bit) -->
<svg xmlns="http://www.w3.org/2000/svg" xml:space="preserve" width="154.107mm" height="168.397mm" version="1.1" style="shape-rendering:geometricPrecision; text-rendering:geometricPrecision; image-rendering:optimizeQuality; fill-rule:evenodd; clip-rule:evenodd"
viewBox="0 0 15893.89 17367.64"
 xmlns:xlink="http://www.w3.org/1999/xlink"
 xmlns:xodm="http://www.corel.com/coreldraw/odm/2003">
 <defs>
  <style type="text/css">
   <![CDATA[
    .str1 {stroke:#1F1B20;stroke-width:72.19;stroke-miterlimit:22.9256}
    .str0 {stroke:#1F1B20;stroke-width:51.57;stroke-miterlimit:22.9256}
    .str2 {stroke:#2B2A29;stroke-width:20.63;stroke-miterlimit:22.9256}
    .fil2 {fill:none}
    .fil0 {fill:#FEFEFE}
    .fil4 {fill:#2B2A29}
    .fil3 {fill:#1F1B20}
    .fil1 {fill:#1F1B20}
    .fil5 {fill:#2B2A29;fill-rule:nonzero}
   ]]>
  </style>
 </defs>
 <g id="Layer_x0020_1">
  <metadata id="CorelCorpID_0Corel-Layer"/>
  <path class="fil0" d="M10023.75 6403.38c0,0 436.96,-196.95 1097.67,-197.62 660.7,-0.67 1121.75,165.78 1121.75,165.78l2187.21 8074.49 -5362.79 -3.49 956.17 -8039.16z"/>
  <g id="_1959821088208">
   <path class="fil1" d="M13186.18 4937.5c-180.3,-782.24 -537.82,-1197.34 -1310.87,-1466.3 -1569.15,-545.95 -3477.48,726.98 -2794.4,2513.54 406.55,1063.26 1754.21,1431.28 2668.34,1950.55 1274.09,723.73 2800.83,1918.4 2607.07,3571.2l-19.56 119.93c-149.56,1185.29 -689.04,2009.54 -1821.13,2484.59 -1137.9,477.47 -2565.4,101.93 -3540.46,-585.84 -1114.81,-786.33 -2897.8,-2364.14 -4144.75,-2678.32 -924.31,-232.88 -2040.49,-7.54 -2819.43,527.98 0,0 -501.4,359.61 -501.4,359.61 337.69,-276.56 608.2,-544.98 1003.47,-740.82 1655.78,-820.38 2858.43,-416.49 4337.12,540.33 1488.57,963.2 2743.83,2466.14 4599.17,2510.44 1442.56,34.45 2703.75,-962.51 2887.39,-2417.97 187.64,-1487.15 -1220.18,-2622.86 -2377.38,-3250.95 -707.79,-384.15 -1679.15,-738.47 -2291.5,-1159.46 -732.94,-503.89 -1186.51,-1265.77 -1057.51,-2176.37 221.48,-1563.53 1989.93,-2269.83 3318.69,-1707.09 776.22,328.73 1129.77,785.41 1257.1,1604.95z"/>
  </g>
  <path class="fil2" d="M13186.18 4937.5c-15.53,-128.43 -62.95,-379.91 -174.45,-603.3 -135.18,-270.86 -321.52,-463.47 -494.32,-589.84 -807.12,-590.29 -1656.97,-641.39 -2668.92,-208.79 -522.29,223.27 -1121.86,987.64 -1084.76,1841.91 17.23,396.85 229.86,976.01 469.89,1237.63 633.27,690.22 1665.64,1033.76 2090.6,1259.93 959.8,510.83 1829.02,940.31 2636.05,2103.18 347.31,500.44 471.13,1126.55 361.46,1767.26 -131.1,765.82 -436.24,1382.5 -1105.32,1851.39 -713.65,500.12 -1200.52,620.71 -2079.99,573.44 -694.06,-37.31 -1257.07,-331.44 -1796.62,-605.05 -78.34,-39.72 -1451.93,-1044.21 -1630.59,-1199.64 -412.81,-359.16 -1489.82,-1071.1 -1893.6,-1269.04 -336.61,-165.01 -834.24,-392.63 -1324.64,-421.61 -853.08,-50.42 -1143.03,32.28 -1961.34,359.98 -377.35,151.1 -701.71,474.65 -1020.04,699.46"/>
  <polygon class="fil3" points="10347.13,12381.39 9951.35,13528.53 9981.86,13542.34 10438.4,12381.43 "/>
  <polygon class="fil3" points="11831.26,12378.18 11945.88,13863.31 11976.81,13857.43 11922.52,12378.23 "/>
  <polygon class="fil3" points="12402.63,12377.2 12887.48,13577.49 12914.15,13562.05 12501.27,12377.23 "/>
  <path class="fil2 str0" d="M11112.97 6115.46c-128.08,-3.25 -224.87,-23.59 -228.27,110.87 -3.4,134.47 97.67,246.09 225.75,249.35 128.09,3.24 234.68,-103.14 238.09,-237.59 3.4,-134.47 -107.49,-119.39 -235.57,-122.63z"/>
  <path class="fil3" d="M11066.81 6672.49c33.4,0 70.73,0.98 70.73,0.98l-25.53 3168.62 -45.19 0 -0.01 -3169.6z"/>
  <polygon class="fil1" points="5775.6,3918.37 9238.39,13096.76 9625.34,13312.46 5911.47,3524.58 "/>
  <line class="fil2 str1" x1="5891.03" y1="3665.12" x2="2184.77" y2= "14434.62" />
  <path class="fil1" d="M10462.62 663.76c0,0 -2.96,-63.86 -65.81,-69.75 -62.86,-5.89 -91.35,38.31 -90.37,74.66 0.98,36.33 7.85,71.69 56.96,85.45 49.11,13.76 95.29,-57.95 95.29,-57.95l399.76 1.97 0 -17.68 -395.83 -16.7z"/>
  <path class="fil1" d="M10465.57 1254.68c0,0 0.48,-71.71 -62.38,-77.61 -62.86,-5.89 -86.95,30.55 -92.85,76.22 -5.9,45.67 -1.44,93.72 59.94,104.53 61.39,10.81 91.36,-70.72 91.36,-70.72l399.76 1.96 0 -17.68 -395.83 -16.7z"/>
  <path class="fil1" d="M10852.26 413.09l-8.87 -233.95c0,0 -1.41,-51.06 -15.65,-70.71 -14.23,-19.65 -38.29,-88.43 23.1,-104.62 61.4,-16.19 101.39,23.15 104.81,47.2 2.36,16.63 -1.59,40.19 -13.21,60.81 -5.38,9.54 -12.71,23.18 -14.29,46.25 -2.21,32.13 -4.95,129.67 -5.93,218.07 -0.98,88.4 0.94,5393.35 0.94,5393.35l-55.98 0 -14.91 -5356.4z"/>
  <path class="fil1" d="M11053.87 820.99c4.33,-13.83 29.29,-24.24 43.93,-24.57 22.04,0.91 39.65,11.87 42.52,22.6l-9.37 5242.8 -57.47 0.62 -19.61 -5241.44z"/>
  <g id="_1959821091568">
   <path class="fil4" d="M13052.77 10591.27c-1162.77,43.99 -811.08,1071.27 -1868.34,1119.26 -421.95,19.15 -1042.89,-12.36 -1060.98,586.05 -3.4,112.28 132.53,78.67 312.2,83.75 346.95,9.8 2053.22,45.38 2184.98,-131.18 68.79,-92.19 322.8,-909.9 389.91,-1066.78 95.39,-222.96 290.86,-403.54 118.45,-573.31 189.25,158.66 7.52,361.64 -72.29,590.66 -65.32,187.46 -255.79,974.37 -356.11,1111.93 -213.84,293.24 -1833.38,80.87 -2264.95,68.68 -218.84,-6.18 -351.35,66.58 -341.47,-117.79 34.11,-636.22 604.59,-623.61 1085.69,-653.36 998.99,-61.77 702.11,-1067.15 1872.89,-1017.9z"/>
  </g>
  <path class="fil2" d="M13052.77 10591.27c-125.18,0 -68.12,-2.04 -222.78,9.09 -120.81,8.69 -286.04,66.7 -387.36,133.07 -271.29,177.69 -444.63,481.39 -672.33,709.09 -338.95,338.96 -832.25,153.47 -1191.57,261.46 -284.89,85.62 -331.54,177.78 -448.42,451.41 -13.05,30.53 -39.91,192.12 -2.6,199.72 70.6,14.39 154.04,20.68 242.66,23.38 216.39,6.61 461.35,11.2 630.17,21.71 155.63,9.68 1321.23,14.83 1440.57,-11.01 243.72,-52.78 239.71,-136.48 305.86,-302.41 48.78,-122.36 223.28,-835.48 439.99,-1246.91 17.59,-33.41 29.79,-133.98 -3.94,-176.89 -2.33,-2.97 -45.39,-51.64 -54.01,-53.9"/>
  <g id="_1959821094304">
   <path class="fil4" d="M10023.75 6403.38c706.08,-564.09 1449.59,-402.22 2210.26,-43.46l-1.17 -0.36c8.07,5.94 4.41,2.13 10.32,11.98 -5.31,3.33 -9.12,7.31 -15.8,5.64 -811.89,-203.14 -1411,-262.82 -2203.62,26.2z"/>
  </g>
  <path class="fil2" d="M10023.75 6403.38c236.31,-186.72 704.77,-270.4 1002.11,-291.46 271.29,-19.21 952.43,159.45 1204.83,256.63l12.48 2.99"/>
  <path class="fil5" d="M603.12 15903.38l-93.14 -205.21 -353 0 -92.78 205.21 -64.2 0 308.22 -660.15 55.74 0 304.43 660.15 -65.27 0zm-268.12 -600.77l-2.68 0c-6.3,19.79 -12.42,36.1 -18.36,48.46l-136.48 304.32 312.89 0 -137.39 -303.44 -17.99 -49.34z"/>
  <path id="1" class="fil5" d="M1700.95 15903.38l-482.47 -533.1c-13.84,-15.57 -24.99,-29.4 -33.81,-41.34l-2.15 0 1.61 32.31 0 542.12 -58.44 0 0 -660.15 46.94 0 479.39 528.43 34.72 42.21 2.69 0c-2.16,-21.4 -3.24,-40.46 -3.24,-57.63l0 -513.02 58.44 0 0 660.15 -43.69 0z"/>
  <path id="2" class="fil5" d="M2804.52 15903.38l-93.14 -205.21 -353 0 -92.78 205.21 -64.2 0 308.22 -660.15 55.73 0 304.43 660.15 -65.26 0zm-268.12 -600.77l-2.69 0c-6.29,19.79 -12.41,36.1 -18.35,48.46l-136.48 304.32 312.88 0 -137.39 -303.44 -17.98 -49.34z"/>
  <path id="3" class="fil5" d="M3300.84 15825.08c58.26,30.71 118.14,45.99 179.64,45.99 63.83,0 112.21,-10.48 144.75,-31.29 32.72,-20.8 49.09,-51.8 49.09,-93 0,-19.35 -4.49,-36.23 -13.48,-50.64 -8.98,-14.55 -22.66,-28.38 -41.36,-41.63 -18.71,-13.24 -59.88,-35.22 -123.72,-65.92 -59.53,-28.38 -100.16,-50.79 -122.29,-67.1 -22.11,-16.3 -39.02,-34.2 -50.53,-53.7 -11.69,-19.5 -17.44,-41.91 -17.44,-67.52 0,-31.88 10.44,-60.7 31.29,-86.59 20.86,-25.76 50.35,-46 88.28,-60.25 37.95,-14.41 80.74,-21.54 128.58,-21.54 51.26,0 100.16,6.69 146.92,19.94l0 50.07c-47.66,-18.19 -99.27,-27.22 -154.29,-27.22 -54.48,0 -98.17,11.06 -131.27,33.32 -32.9,22.27 -49.44,51.08 -49.44,86.74 0,23.58 4.49,42.5 13.67,56.91 9.17,14.26 24.63,28.67 46.58,43.08 21.93,14.26 60.96,34.49 116.7,60.68 50.71,23.29 89.37,44.39 116.52,63.02 26.98,18.78 46.4,37.7 57.91,56.47 11.51,18.93 17.44,41.48 17.44,67.68 0,53.12 -22.84,95.04 -68.34,125.89 -45.49,30.86 -106.45,46.29 -183.05,46.29 -28.05,0 -60.95,-3.64 -98.72,-11.07 -37.76,-7.42 -65.64,-15.43 -83.44,-24.01l0 -54.58z"/>
  <polygon id="4" class="fil5" points="4450.63,15286.89 4450.63,15903.38 4393.27,15903.38 4393.27,15286.89 4157.7,15286.89 4157.7,15243.23 4686.21,15243.23 4686.21,15286.89 "/>
  <path id="5" class="fil5" d="M5675.41 15903.38l-93.14 -205.21 -353 0 -92.78 205.21 -64.2 0 308.22 -660.15 55.74 0 304.43 660.15 -65.27 0zm-268.11 -600.77l-2.69 0c-6.29,19.79 -12.42,36.1 -18.35,48.46l-136.48 304.32 312.88 0 -137.39 -303.44 -17.98 -49.34z"/>
  <path id="6" class="fil5" d="M6171.73 15825.08c58.26,30.71 118.14,45.99 179.64,45.99 63.83,0 112.2,-10.48 144.75,-31.29 32.72,-20.8 49.09,-51.8 49.09,-93 0,-19.35 -4.49,-36.23 -13.49,-50.64 -8.98,-14.55 -22.66,-28.38 -41.35,-41.63 -18.71,-13.24 -59.88,-35.22 -123.72,-65.92 -59.53,-28.38 -100.16,-50.79 -122.29,-67.1 -22.11,-16.3 -39.03,-34.2 -50.53,-53.7 -11.69,-19.5 -17.45,-41.91 -17.45,-67.52 0,-31.88 10.44,-60.7 31.3,-86.59 20.85,-25.76 50.35,-46 88.28,-60.25 37.95,-14.41 80.74,-21.54 128.58,-21.54 51.26,0 100.16,6.69 146.92,19.94l0 50.07c-47.66,-18.19 -99.27,-27.22 -154.29,-27.22 -54.48,0 -98.17,11.06 -131.27,33.32 -32.9,22.27 -49.44,51.08 -49.44,86.74 0,23.58 4.49,42.5 13.66,56.91 9.18,14.26 24.64,28.67 46.58,43.08 21.94,14.26 60.96,34.49 116.71,60.68 50.7,23.29 89.37,44.39 116.52,63.02 26.98,18.78 46.4,37.7 57.91,56.47 11.5,18.93 17.44,41.48 17.44,67.68 0,53.12 -22.84,95.04 -68.34,125.89 -45.49,30.86 -106.45,46.29 -183.06,46.29 -28.04,0 -60.94,-3.64 -98.72,-11.07 -37.76,-7.42 -65.62,-15.43 -83.43,-24.01l0 -54.58z"/>
  <polygon id="7" class="fil5" points="7157.71,15903.38 7099.26,15903.38 7099.26,15243.23 7157.71,15243.23 "/>
  <polygon id="8" class="fil5" points="7745.55,15903.38 7687.11,15903.38 7687.11,15243.23 7745.55,15243.23 "/>
  <path id="9" class="fil5" d="M8805.97 15903.38l-93.14 -205.21 -353 0 -92.79 205.21 -64.2 0 308.23 -660.15 55.73 0 304.43 660.15 -65.26 0zm-268.12 -600.77l-2.69 0c-6.29,19.79 -12.41,36.1 -18.35,48.46l-136.48 304.32 312.88 0 -137.39 -303.44 -17.98 -49.34z"/>
  <path id="10" class="fil5" d="M9622.02 15825.08c58.26,30.71 118.14,45.99 179.64,45.99 63.83,0 112.21,-10.48 144.75,-31.29 32.72,-20.8 49.09,-51.8 49.09,-93 0,-19.35 -4.49,-36.23 -13.49,-50.64 -8.98,-14.55 -22.65,-28.38 -41.35,-41.63 -18.71,-13.24 -59.88,-35.22 -123.72,-65.92 -59.53,-28.38 -100.16,-50.79 -122.29,-67.1 -22.11,-16.3 -39.02,-34.2 -50.53,-53.7 -11.69,-19.5 -17.45,-41.91 -17.45,-67.52 0,-31.88 10.44,-60.7 31.3,-86.59 20.86,-25.76 50.35,-46 88.28,-60.25 37.95,-14.41 80.74,-21.54 128.58,-21.54 51.26,0 100.16,6.69 146.92,19.94l0 50.07c-47.66,-18.19 -99.27,-27.22 -154.29,-27.22 -54.48,0 -98.17,11.06 -131.27,33.32 -32.9,22.27 -49.44,51.08 -49.44,86.74 0,23.58 4.49,42.5 13.66,56.91 9.18,14.26 24.64,28.67 46.59,43.08 21.93,14.26 60.96,34.49 116.7,60.68 50.7,23.29 89.37,44.39 116.52,63.02 26.98,18.78 46.4,37.7 57.91,56.47 11.5,18.93 17.44,41.48 17.44,67.68 0,53.12 -22.84,95.04 -68.34,125.89 -45.49,30.86 -106.45,46.29 -183.05,46.29 -28.05,0 -60.95,-3.64 -98.73,-11.07 -37.76,-7.42 -65.62,-15.43 -83.43,-24.01l0 -54.58z"/>
  <path id="11" class="fil5" d="M10970.51 15903.38l-346.69 -314.79 -13.68 -15.28 -2.16 0 0 330.07 -58.44 0 0 -660.15 58.44 0 0 310.86 2.16 0c4.86,-6.84 9.89,-12.37 14.74,-16.58l329.26 -294.28 75.35 0 -357.13 320.03 379.24 340.12 -81.1 0z"/>
  <path id="12" class="fil5" d="M11907.22 15903.38l-110.6 -193.13c-20.49,-36.67 -41.52,-62.57 -63.29,-77.71 -21.75,-14.99 -51.06,-22.56 -87.92,-22.56l-100.16 0 0 293.4 -58.45 0 0 -660.15 227.66 0c69.77,0 125.87,15.72 168.32,47.01 42.25,31.44 63.47,73.21 63.47,125.15 0,47.89 -17.26,87.9 -51.61,119.64 -34.52,31.87 -81.27,52.09 -140.26,60.97l0 1.75c33.46,11.06 65.65,43.07 96.39,95.91l122.82 209.72 -66.36 0zm-361.98 -616.49l0 280.3 140.26 0c60.59,0 109.32,-13.24 145.83,-39.58 36.5,-26.49 54.85,-62.29 54.85,-107.4 0,-41.77 -16.36,-74.37 -49.1,-97.95 -32.54,-23.58 -79.48,-35.37 -140.61,-35.37l-151.23 0z"/>
  <path id="13" class="fil5" d="M12692.51 15652.77l0 250.61 -57.91 0 0 -249.3 -250.12 -410.85 65.27 0 190.07 317.26c7.74,13.39 16.01,29.55 24.82,48.61l2.15 0c2.16,-3.93 4.68,-8.73 7.56,-14.12 3.06,-5.38 76.06,-122.68 219.02,-351.75l62.58 0 -263.44 409.54z"/>
  <path id="14" class="fil5" d="M13464.31 15639.67l0 263.71 -58.44 0 0 -660.15 198.7 0c84.16,0 148.53,15.72 192.77,47.15 44.23,31.29 66.36,77.57 66.36,138.7 0,41.77 -11.51,78.59 -34.54,110.6 -23.01,32.02 -56.1,56.61 -99.07,73.94 -42.98,17.32 -92.79,26.05 -149.25,26.05l-116.53 0zm0 -352.78l0 309.99 114.91 0c73,0 128.75,-14.12 167.05,-42.5 38.3,-28.23 57.37,-68.25 57.37,-119.92 0,-98.38 -70.14,-147.58 -210.22,-147.58l-129.11 0z"/>
  <path id="15" class="fil5" d="M14781.33 15903.38l-346.69 -314.79 -13.68 -15.28 -2.16 0 0 330.07 -58.44 0 0 -660.15 58.44 0 0 310.86 2.16 0c4.86,-6.84 9.89,-12.37 14.75,-16.58l329.26 -294.28 75.35 0 -357.14 320.03 379.24 340.12 -81.1 0z"/>
  <path id="16" class="fil5" d="M15828.62 15903.38l-93.14 -205.21 -353 0 -92.79 205.21 -64.19 0 308.22 -660.15 55.73 0 304.43 660.15 -65.26 0zm-268.12 -600.77l-2.69 0c-6.29,19.79 -12.41,36.1 -18.35,48.46l-136.48 304.32 312.88 0 -137.39 -303.44 -17.98 -49.34z"/>
  <polygon class="fil5" points="3583,17361.97 3553.78,17361.97 3553.78,17031.89 3583,17031.89 "/>
  <path id="1" class="fil5" d="M4295.2 17361.97l-241.23 -266.54c-6.92,-7.79 -12.5,-14.71 -16.89,-20.67l-1.08 0 0.79 16.15 0 271.06 -29.22 0 0 -330.07 23.47 0 239.71 264.22 17.35 21.1 1.34 0c-1.07,-10.7 -1.62,-20.24 -1.62,-28.82l0 -256.51 29.22 0 0 330.07 -21.83 0z"/>
  <polygon id="2" class="fil5" points="4852.47,17053.73 4852.47,17361.97 4823.79,17361.97 4823.79,17053.73 4706.01,17053.73 4706.01,17031.89 4970.26,17031.89 4970.26,17053.73 "/>
  <polygon id="3" class="fil5" points="5359.2,17361.97 5359.2,17031.89 5550.73,17031.89 5550.73,17053.73 5388.42,17053.73 5388.42,17184.71 5538.85,17184.71 5538.85,17206.1 5388.42,17206.1 5388.42,17340.58 5559.88,17340.58 5559.88,17361.97 "/>
  <path id="4" class="fil5" d="M6180.73 17361.97l-55.29 -96.57c-10.25,-18.34 -20.77,-31.29 -31.66,-38.85 -10.87,-7.5 -25.52,-11.28 -43.96,-11.28l-50.08 0 0 146.7 -29.22 0 0 -330.07 113.83 0c34.88,0 62.92,7.86 84.16,23.5 21.12,15.72 31.72,36.6 31.72,62.58 0,23.94 -8.62,43.95 -25.8,59.82 -17.25,15.93 -40.64,26.04 -70.12,30.49l0 0.87c16.72,5.54 32.82,21.54 48.2,47.96l61.41 104.86 -33.18 0zm-180.99 -308.24l0 140.15 70.13 0c30.29,0 54.66,-6.62 72.92,-19.79 18.25,-13.24 27.42,-31.15 27.42,-53.7 0,-20.88 -8.18,-37.19 -24.56,-48.98 -16.26,-11.79 -39.73,-17.68 -70.3,-17.68l-75.62 0z"/>
  <polygon id="5" class="fil5" points="6644.21,17361.97 6614.99,17361.97 6614.99,17031.89 6644.21,17031.89 "/>
  <path id="6" class="fil5" d="M7236.55 17367.64c-37.58,0 -70.67,-6.98 -99.43,-20.88 -28.68,-13.89 -50.9,-33.61 -66.45,-59.16 -15.65,-25.46 -23.46,-54.57 -23.46,-87.24 0,-34.86 8.09,-65.49 24.19,-91.98 16.18,-26.5 39.19,-46.79 69.05,-60.98 29.85,-14.12 64.37,-21.17 103.48,-21.17 36.24,0 68.43,6.91 96.58,20.81 28.14,13.82 49.99,33.4 65.36,58.65 15.29,25.32 23.03,53.99 23.03,86.15 0,34.79 -7.74,65.56 -23.21,92.28 -15.46,26.7 -37.76,47.3 -66.89,61.78 -29.14,14.48 -63.21,21.75 -102.23,21.75zm2.88 -320.03c-31.56,0 -59.79,6.33 -84.51,19 -24.73,12.65 -43.88,30.41 -57.46,53.26 -13.49,22.85 -20.22,48.83 -20.22,77.79 0,29.54 6.47,55.59 19.33,78 12.93,22.48 31.47,39.81 55.56,51.96 24.19,12.15 52.15,18.19 83.89,18.19 50.62,0 90.36,-13.31 119.39,-39.88 28.96,-26.56 43.43,-63.38 43.43,-110.39 0,-45.63 -14.2,-81.71 -42.7,-108.2 -28.42,-26.5 -67.35,-39.74 -116.71,-39.74z"/>
  <path id="7" class="fil5" d="M8042.07 17361.97l-55.29 -96.57c-10.25,-18.34 -20.77,-31.29 -31.66,-38.85 -10.87,-7.5 -25.53,-11.28 -43.96,-11.28l-50.08 0 0 146.7 -29.22 0 0 -330.07 113.83 0c34.88,0 62.92,7.86 84.16,23.5 21.12,15.72 31.72,36.6 31.72,62.58 0,23.94 -8.62,43.95 -25.8,59.82 -17.25,15.93 -40.64,26.04 -70.12,30.49l0 0.87c16.72,5.54 32.82,21.54 48.2,47.96l61.41 104.86 -33.18 0zm-180.99 -308.24l0 140.15 70.13 0c30.29,0 54.66,-6.62 72.92,-19.79 18.25,-13.24 27.42,-31.15 27.42,-53.7 0,-20.88 -8.18,-37.19 -24.56,-48.98 -16.26,-11.79 -39.73,-17.68 -70.3,-17.68l-75.62 0z"/>
  <path id="8" class="fil5" d="M8796.06 17361.97l0 -330.07 102.77 0c67.79,0 119.31,13.61 154.72,40.89 35.34,27.29 53.05,67.17 53.05,119.56 0,33.68 -8.62,63.45 -25.89,89.28 -17.36,25.83 -42.17,45.7 -74.45,59.52 -32.28,13.9 -70.12,20.81 -113.55,20.81l-96.66 0zm29.22 -308.24l0 286.85 63.76 0c60.23,0 106.55,-12.74 138.81,-38.2 32.36,-25.55 48.46,-61.86 48.46,-109.16 0,-93 -60.59,-139.49 -181.7,-139.49l-69.33 0z"/>
  <polygon id="9" class="fil5" points="9509.32,17361.97 9509.32,17031.89 9700.85,17031.89 9700.85,17053.73 9538.54,17053.73 9538.54,17184.71 9688.96,17184.71 9688.96,17206.1 9538.54,17206.1 9538.54,17340.58 9710,17340.58 9710,17361.97 "/>
  <path id="10" class="fil5" d="M10107.51 17322.82c29.13,15.36 59.08,23 89.83,23 31.91,0 56.1,-5.24 72.36,-15.65 16.37,-10.41 24.56,-25.91 24.56,-46.5 0,-9.67 -2.25,-18.12 -6.75,-25.32 -4.49,-7.28 -11.33,-14.19 -20.68,-20.81 -9.34,-6.62 -29.94,-17.61 -61.86,-32.96 -29.75,-14.19 -50.07,-25.39 -61.13,-33.55 -11.07,-8.15 -19.51,-17.1 -25.28,-26.85 -5.85,-9.76 -8.71,-20.96 -8.71,-33.77 0,-15.93 5.22,-30.34 15.64,-43.3 10.44,-12.88 25.19,-22.99 44.16,-30.13 18.96,-7.2 40.37,-10.77 64.27,-10.77 25.63,0 50.08,3.34 73.46,9.97l0 25.03c-23.82,-9.1 -49.63,-13.61 -77.15,-13.61 -27.25,0 -49.09,5.53 -65.65,16.67 -16.45,11.13 -24.72,25.54 -24.72,43.37 0,11.79 2.26,21.25 6.84,28.46 4.58,7.13 12.31,14.34 23.29,21.53 10.97,7.14 30.49,17.24 58.35,30.34 25.35,11.64 44.68,22.19 58.26,31.51 13.48,9.39 23.2,18.85 28.95,28.24 5.75,9.46 8.73,20.74 8.73,33.84 0,26.56 -11.43,47.51 -34.17,62.94 -22.75,15.42 -53.23,23.13 -91.53,23.13 -14.02,0 -30.48,-1.82 -49.36,-5.53 -18.88,-3.71 -32.81,-7.71 -41.72,-12l0 -27.29z"/>
  <polygon id="11" class="fil5" points="10760.34,17361.97 10731.12,17361.97 10731.12,17031.89 10760.34,17031.89 "/>
  <path id="12" class="fil5" d="M11480.45 17338.89c-42.17,19.14 -85.6,28.74 -130.37,28.74 -37.05,0 -69.77,-6.98 -98.27,-20.88 -28.41,-13.89 -50.26,-33.47 -65.55,-58.71 -15.27,-25.26 -22.93,-54 -22.93,-86.45 0,-32.96 8.45,-62.87 25.54,-89.8 16.99,-26.92 41.09,-47.95 72.19,-63.02 31.03,-15.06 66.53,-22.56 106.36,-22.56 36.41,0 71.31,5.82 104.85,17.46l0 25.76c-36.51,-14.55 -72.83,-21.83 -109.08,-21.83 -33.34,0 -62.92,6.33 -88.82,19.07 -25.9,12.73 -45.95,30.63 -59.97,53.63 -14.03,22.99 -21.03,48.97 -21.03,77.78 0,45.63 14.37,81.64 43.33,108.05 28.86,26.42 68.43,39.67 118.69,39.67 36.31,0 68.23,-6.33 95.84,-18.93l0 -108.13 -95.67 0 0 -21.4 124.89 0 0 141.53z"/>
  <path id="13" class="fil5" d="M12182.12 17361.97l-241.23 -266.54c-6.92,-7.79 -12.5,-14.71 -16.89,-20.67l-1.08 0 0.79 16.15 0 271.06 -29.22 0 0 -330.07 23.47 0 239.71 264.22 17.36 21.1 1.33 0c-1.07,-10.7 -1.62,-20.24 -1.62,-28.82l0 -256.51 29.23 0 0 330.07 -21.84 0z"/>
  <circle class="fil1 str2" cx="7934.77" cy="16540.97" r="51.57"/>
  <line class="fil2 str2" x1="8253.09" y1="16520.51" x2="14820.46" y2= "16520.51" />
  <line class="fil2 str2" x1="985.47" y1="16520.51" x2="7552.84" y2= "16520.51" />
 </g>
</svg>
